<svg width="22" height="21" viewBox="0 0 22 21" fill="none" xmlns="http://www.w3.org/2000/svg">
<path d="M10.8439 11.694C11.5459 11.694 12.115 11.1249 12.115 10.4229C12.115 9.72083 11.5459 9.15172 10.8439 9.15172C10.1419 9.15172 9.57275 9.72083 9.57275 10.4229C9.57275 11.1249 10.1419 11.694 10.8439 11.694Z" fill="black"/>
<path d="M5.75942 11.694C6.46146 11.694 7.03056 11.1249 7.03056 10.4229C7.03056 9.72083 6.46146 9.15172 5.75942 9.15172C5.05739 9.15172 4.48828 9.72083 4.48828 10.4229C4.48828 11.1249 5.05739 11.694 5.75942 11.694Z" fill="black"/>
<path d="M15.9284 11.694C16.6304 11.694 17.1995 11.1249 17.1995 10.4229C17.1995 9.72083 16.6304 9.15172 15.9284 9.15172C15.2263 9.15172 14.6572 9.72083 14.6572 10.4229C14.6572 11.1249 15.2263 11.694 15.9284 11.694Z" fill="black"/>
</svg>
